<svg width="24" height="25" viewBox="0 0 24 25" fill="none" xmlns="http://www.w3.org/2000/svg">
<g clip-path="url(#clip0_194_8206)">
<path d="M20.317 4.82535C18.787 4.13535 17.147 3.62535 15.432 3.33535C15.4167 3.33242 15.4009 3.33431 15.3868 3.34075C15.3726 3.3472 15.3608 3.3579 15.353 3.37135C15.143 3.74035 14.909 4.22135 14.745 4.60135C12.9261 4.32958 11.0769 4.32958 9.258 4.60135C9.07533 4.18021 8.86935 3.76957 8.641 3.37135C8.63326 3.35773 8.62155 3.3468 8.60744 3.34001C8.59332 3.33322 8.57747 3.33089 8.562 3.33335C6.848 3.62335 5.208 4.13335 3.677 4.82435C3.66383 4.82987 3.65266 4.83929 3.645 4.85135C0.533 9.42635 -0.32 13.8883 0.099 18.2943C0.100166 18.3051 0.103516 18.3156 0.108845 18.325C0.114174 18.3345 0.121372 18.3428 0.13 18.3493C1.94639 19.6718 3.97234 20.6792 6.123 21.3293C6.13799 21.334 6.15403 21.334 6.16901 21.3293C6.184 21.3247 6.19724 21.3156 6.207 21.3033C6.6698 20.6844 7.0799 20.0278 7.433 19.3403C7.4379 19.3309 7.44073 19.3206 7.44128 19.31C7.44184 19.2994 7.44012 19.2889 7.43623 19.279C7.43234 19.2691 7.42638 19.2602 7.41875 19.2529C7.41112 19.2455 7.402 19.2399 7.392 19.2363C6.746 18.9931 6.12008 18.6995 5.52 18.3583C5.50922 18.3522 5.50013 18.3435 5.49356 18.3329C5.48698 18.3224 5.48313 18.3104 5.48233 18.298C5.48154 18.2856 5.48384 18.2732 5.48901 18.2619C5.49419 18.2506 5.50209 18.2408 5.512 18.2333C5.638 18.1403 5.764 18.0433 5.884 17.9463C5.8948 17.9376 5.90781 17.9321 5.92158 17.9303C5.93536 17.9285 5.94935 17.9306 5.962 17.9363C9.889 19.7003 14.142 19.7003 18.023 17.9363C18.0357 17.9303 18.0498 17.9279 18.0638 17.9295C18.0778 17.9311 18.091 17.9366 18.102 17.9453C18.222 18.0433 18.347 18.1403 18.474 18.2333C18.484 18.2407 18.492 18.2504 18.4974 18.2615C18.5027 18.2727 18.5052 18.2851 18.5046 18.2975C18.504 18.3098 18.5004 18.3219 18.494 18.3325C18.4876 18.3431 18.4787 18.352 18.468 18.3583C17.87 18.7023 17.248 18.9933 16.595 19.2353C16.585 19.239 16.5758 19.2447 16.5682 19.2522C16.5606 19.2596 16.5546 19.2686 16.5507 19.2786C16.5468 19.2885 16.5451 19.2992 16.5457 19.3098C16.5463 19.3205 16.5491 19.3309 16.554 19.3403C16.914 20.0273 17.326 20.6813 17.779 21.3023C17.7884 21.3151 17.8015 21.3246 17.8166 21.3296C17.8316 21.3346 17.8478 21.3349 17.863 21.3303C20.0174 20.682 22.0466 19.6741 23.865 18.3493C23.8739 18.3431 23.8813 18.3351 23.8868 18.3258C23.8924 18.3165 23.8958 18.3061 23.897 18.2953C24.397 13.2013 23.059 8.77535 20.348 4.85335C20.3414 4.8406 20.3304 4.83067 20.317 4.82535ZM8.02 15.6113C6.838 15.6113 5.863 14.5423 5.863 13.2313C5.863 11.9193 6.819 10.8513 8.02 10.8513C9.23 10.8513 10.196 11.9283 10.177 13.2313C10.177 14.5433 9.221 15.6113 8.02 15.6113ZM15.995 15.6113C14.812 15.6113 13.838 14.5423 13.838 13.2313C13.838 11.9193 14.793 10.8513 15.995 10.8513C17.205 10.8513 18.171 11.9283 18.152 13.2313C18.152 14.5433 17.206 15.6113 15.995 15.6113Z" fill="black"/>
</g>
<defs>
<clipPath id="clip0_194_8206">
<rect width="24" height="24" fill="white" transform="translate(0 0.333344)"/>
</clipPath>
</defs>
</svg>
