<svg width="200" height="200" viewBox="0 0 200 200" fill="none" xmlns="http://www.w3.org/2000/svg">
<path d="M44.0502 58.5397C53.1146 58.5397 60.4628 51.1915 60.4628 42.1271C60.4628 33.0626 53.1146 25.7144 44.0502 25.7144C34.9857 25.7144 27.6375 33.0626 27.6375 42.1271C27.6375 51.1915 34.9857 58.5397 44.0502 58.5397Z" fill="black"/>
<path d="M44.0502 170.164C53.1146 170.164 60.4628 162.815 60.4628 153.751C60.4628 144.686 53.1146 137.338 44.0502 137.338C34.9857 137.338 27.6375 144.686 27.6375 153.751C27.6375 162.815 34.9857 170.164 44.0502 170.164Z" fill="black"/>
<path d="M154.467 58.5397C163.531 58.5397 170.879 51.1915 170.879 42.1271C170.879 33.0626 163.531 25.7144 154.467 25.7144C145.402 25.7144 138.054 33.0626 138.054 42.1271C138.054 51.1915 145.402 58.5397 154.467 58.5397Z" fill="black"/>
<path d="M154.467 170.164C163.531 170.164 170.879 162.815 170.879 153.751C170.879 144.686 163.531 137.338 154.467 137.338C145.402 137.338 138.054 144.686 138.054 153.751C138.054 162.815 145.402 170.164 154.467 170.164Z" fill="black"/>
<path d="M75.981 105.229L53.2626 99.549L5.05328 112.473L11.2248 135.46L82.7786 116.275L63.4591 187.828L86.401 194L99.3701 145.656L93.6458 122.938C92.6079 118.65 90.4111 114.731 87.2957 111.607C84.1802 108.484 80.266 106.277 75.981 105.229Z" fill="black"/>
<path d="M63.4591 11.2248L82.6444 82.7786L11.0906 63.5932L5.05328 86.4457L53.2626 99.3701L75.981 93.9141C80.2885 92.8511 84.2182 90.6176 87.3357 87.4607C90.4532 84.3037 92.637 80.3462 93.6458 76.0257L99.3701 53.3074L86.401 5.05328L63.4591 11.2248Z" fill="black"/>
<path d="M122.893 93.9141L145.791 99.3701L194 86.4457L187.873 63.4591L116.319 82.6444L135.505 11.0906L112.473 5.05328L99.5043 53.3968L105.229 76.0257C106.256 80.3376 108.446 84.2852 111.561 87.4392C114.675 90.5931 118.595 92.8326 122.893 93.9141Z" fill="black"/>
<path d="M122.893 105.229C118.634 106.284 114.741 108.477 111.63 111.572C108.518 114.668 106.306 118.55 105.229 122.804L99.5043 145.522L112.473 193.866L135.46 187.828L116.275 116.275L187.828 135.46L193.955 112.473L145.791 99.549L122.893 105.229Z" fill="black"/>
</svg>
