<svg width="152" height="23" viewBox="0 0 152 23" fill="none" xmlns="http://www.w3.org/2000/svg">
<path d="M2.24014 22.58C0.210145 22.95 -0.219855 20.2 1.60015 20.74C3.20015 22.97 4.75015 20.82 5.10015 18.73L8.05015 8.73998C8.35015 8.01998 6.66014 8.46998 6.38014 8.36998C5.84014 8.36998 6.17015 7.57998 6.51015 7.52998C6.94015 7.41998 8.40015 7.71998 8.47015 6.99998C9.59015 -1.50002 18.5901 0.189982 14.8501 3.32998C12.2001 -1.36002 10.3301 4.31998 9.77014 7.19998C10.1801 7.92998 13.4601 6.51998 12.2701 8.08998C11.8401 8.39998 10.0301 8.06998 9.56014 8.30998C7.06014 12.75 8.27015 21.15 2.25015 22.58H2.24014Z" fill="black"/>
<path d="M13.2103 16.51C10.7503 16.34 14.5503 10.71 14.5703 9.77997C15.2903 7.82997 13.5503 9.81997 12.8903 10.07C12.4903 9.43997 13.8203 8.47997 14.2503 8.06997C21.3603 3.11997 11.3203 16.33 14.8103 14.63C16.9303 12.68 19.2103 9.83997 20.7103 7.45997C23.7603 5.38997 18.3203 14.76 18.7703 14.96C19.3603 16.08 21.5203 12.66 21.7403 13.68C18.1303 18.3 15.6303 17.23 18.8603 11.75C19.0203 11.42 18.7603 11.38 18.6003 11.57C16.7603 13.34 15.3903 15.64 13.2103 16.52V16.51Z" fill="black"/>
<path d="M24.0003 16.56C22.2303 16.42 26.0603 10.01 26.0003 9.33999C26.7803 7.31999 24.7803 8.90999 24.2303 9.45999C23.8103 8.28999 25.5303 7.01999 26.7503 7.08999C27.2303 7.07999 27.7003 7.54999 27.4703 8.03999L26.0203 11.78C27.3003 10.89 28.9203 7.07999 31.3703 7.08999C35.8103 7.35999 26.1403 18.5 32.6103 13.92C34.1103 12.89 32.4503 15.09 31.9303 15.32C24.0503 19.93 32.7803 9.86999 30.8403 8.01999C27.4603 9.30999 26.4603 14.23 24.0003 16.56Z" fill="black"/>
<path d="M35.7404 16.51C31.2404 15.11 38.8704 3.96 42.1904 7.86C42.3704 7.82 43.6804 2.89 43.7704 2.76C43.9704 2.23 43.8404 1.83 43.2404 1.66C41.2804 0.989999 44.7904 0.76 45.3704 0.69C46.3704 0.33 41.8504 13.59 41.9804 13.84C41.3204 16.07 43.8004 14.43 44.3304 13.49C44.4104 13.33 44.7104 13.34 44.6404 13.56C43.1104 16.93 39.0504 17.93 40.8604 13.18C39.9704 13.14 38.0804 16.89 35.7304 16.5L35.7404 16.51ZM36.5504 15.48C39.0704 15.25 43.9804 9.22 40.7104 7.67C38.6004 7.99 34.1004 14.18 36.5504 15.48Z" fill="black"/>
<path d="M46.8704 16.58C45.2104 16.27 48.7804 10.15 48.8504 9.07996C49.3604 7.82996 47.9704 8.49996 47.4104 8.58996C46.9004 7.57996 49.4904 6.56996 50.0704 7.40996C50.4404 8.56996 49.0604 10.75 48.7404 11.9C49.7604 11.73 51.0304 8.26996 52.4404 7.61996C54.2304 5.85996 55.5204 8.18996 54.2104 9.59996C53.3304 10.45 53.3204 9.17996 53.2104 8.58996C50.6604 8.33996 48.6704 15.18 46.8704 16.59V16.58Z" fill="black"/>
<path d="M54 16.51C49.91 15.66 58.85 6.01996 60.71 7.50996C61.04 7.87996 60.91 7.90996 61.05 7.80996C61.24 7.46996 61.52 7.02996 61.48 7.04996C65.4 5.14996 55.69 19.76 62.18 13.8C62.68 13.45 62.58 14.13 62.22 14.54C61.62 15.94 57.87 17.78 58.37 15.15C58.37 14.88 59.38 13.16 59.5 12.48C57.68 13.95 56.37 16.37 53.99 16.52L54 16.51ZM55.23 15.12C56.79 15.2 63.81 7.04996 58.72 8.82996C57.2 9.85996 53.22 13.6 55.23 15.12Z" fill="black"/>
<path d="M64.83 16.51C61.7 16.01 70.32 6.18 64.61 9.76C64.33 8.93 68.38 5.92 68.59 7.8C68.25 9.26 62.67 19.2 68.52 13.19C69.17 14.18 66.04 16.45 64.82 16.51H64.83ZM69.27 4.92C67.91 4.77 68.56 2.62 69.73 2.72C71.04 2.89 70.45 5.02 69.27 4.92Z" fill="black"/>
<path d="M70.4099 16.51C69.2199 16.66 68.7599 14.87 69.8399 14.53C70.6899 14.95 71.8699 16.1 72.7899 15.03C74.2699 13.06 70.8199 10.95 72.2099 8.96001C72.8499 8.01001 74.2099 6.70001 75.3699 7.27001C76.2499 7.62001 76.0999 8.58 75.2799 8.82C74.7399 8.49 74.0499 7.65001 73.3899 8.41001C72.6099 11.76 77.8899 15.19 70.4199 16.52L70.4099 16.51Z" fill="black"/>
<path d="M78.2502 16.53C74.0702 15.33 77.2602 9.33997 79.7602 7.78997C82.4002 5.74997 85.5602 8.52997 82.0102 10.36C80.9302 10.92 79.5802 11.16 78.3702 11.44C76.7402 14.11 78.7102 17.04 81.2002 14.16C83.2802 13.39 79.3802 17.21 78.2502 16.54V16.53ZM78.7302 10.88C79.7202 10.81 81.1402 10.28 81.8602 9.47997C82.8802 8.50997 82.0202 6.89997 80.7202 8.02997C80.0502 8.59997 78.2702 10.09 78.7302 10.88Z" fill="black"/>
<path d="M84.7399 16.58C83.0699 16.36 86.6599 10.1 86.7199 9.07996C87.2399 7.82996 85.8399 8.49996 85.2799 8.58996C84.7699 7.57996 87.3599 6.56996 87.9399 7.40996C88.3099 8.56996 86.9299 10.75 86.6099 11.9C87.6299 11.73 88.8999 8.26996 90.3099 7.61996C92.0999 5.85996 93.3899 8.18996 92.0799 9.59996C91.1999 10.45 91.1899 9.17996 91.0799 8.58996C88.5299 8.33996 86.5399 15.18 84.7399 16.59V16.58Z" fill="black"/>
<path d="M98.6403 22.5799C96.8103 22.7899 92.3803 21.3099 94.7203 19.1999C95.5203 18.1999 99.8203 18.0999 97.6903 16.7099C96.7803 15.7799 98.2203 15.1599 98.6803 14.4599C95.5303 12.7599 98.5803 7.13995 101.58 7.08995C102.32 7.01995 102.59 7.50995 103.21 7.59995C104.07 7.56995 106.47 6.66995 105.72 8.40995C105.26 9.05995 103.63 7.72995 103.48 8.62995C103.94 10.9999 102.12 14.2899 99.5903 14.4999C99.1503 14.4999 98.8603 15.0399 98.8603 15.3999C99.2703 17.2099 102.25 17.6699 103.23 19.1499C104.12 21.4499 100.38 22.5399 98.6403 22.5699V22.5799ZM99.3003 21.9199C105.18 21.4199 99.2103 16.0999 96.3503 19.0299C93.9303 20.7599 97.7103 22.0699 99.3003 21.9199ZM99.5203 13.9799C101.21 13.4299 103.61 8.81995 101.65 7.70995C99.8203 8.10995 97.2603 13.0199 99.5203 13.9799Z" fill="black"/>
<path d="M105.83 16.51C101.74 15.66 110.68 6.01996 112.54 7.50996C112.87 7.87996 112.74 7.90996 112.88 7.80996C113.06 7.47996 113.36 7.01996 113.31 7.04996C117.23 5.14996 107.53 19.76 114.01 13.8C114.51 13.45 114.41 14.13 114.05 14.54C113.45 15.94 109.71 17.78 110.2 15.15C110.2 14.88 111.21 13.16 111.33 12.48C109.51 13.95 108.2 16.37 105.82 16.52L105.83 16.51ZM107.06 15.12C108.62 15.2 115.64 7.04996 110.55 8.82996C109.03 9.85996 105.05 13.6 107.06 15.12Z" fill="black"/>
<path d="M116.44 16.51C113.21 16.68 121.16 2.82998 119.68 1.83998C117.33 0.989976 119.93 0.879976 120.94 0.689976C124.66 -1.36002 114.25 17.79 118.19 14.88C118.92 14.37 119.52 13.48 120.09 12.86C121.78 12.98 117.6 16.84 116.44 16.52V16.51Z" fill="black"/>
<path d="M122.4 16.51C119.17 16.68 127.12 2.82998 125.64 1.83998C123.29 0.989976 125.89 0.879976 126.9 0.689976C130.62 -1.36002 120.21 17.79 124.15 14.88C124.88 14.37 125.48 13.48 126.05 12.86C127.74 12.98 123.56 16.84 122.4 16.52V16.51Z" fill="black"/>
<path d="M129.79 16.53C125.61 15.33 128.8 9.33997 131.3 7.78997C133.94 5.74997 137.1 8.52997 133.55 10.36C132.47 10.92 131.12 11.16 129.91 11.44C128.28 14.11 130.25 17.04 132.74 14.16C134.82 13.39 130.92 17.21 129.79 16.54V16.53ZM130.27 10.88C131.26 10.81 132.68 10.28 133.4 9.47997C134.42 8.50997 133.56 6.89997 132.26 8.02997C131.59 8.59997 129.81 10.09 130.27 10.88Z" fill="black"/>
<path d="M136.28 16.58C134.61 16.36 138.2 10.1 138.26 9.07996C138.78 7.82996 137.38 8.49996 136.82 8.58996C136.31 7.57996 138.9 6.56996 139.48 7.40996C139.85 8.56996 138.47 10.75 138.15 11.9C139.17 11.73 140.44 8.26996 141.85 7.61996C143.64 5.85996 144.93 8.18996 143.62 9.59996C142.74 10.45 142.73 9.17996 142.62 8.58996C140.07 8.33996 138.08 15.18 136.28 16.59V16.58Z" fill="black"/>
<path d="M142.11 22.58C140.87 22.64 140.82 20.71 141.98 20.56C142.53 20.56 142.76 21.27 143.32 21.26C147.45 19.8 148.75 11.45 146.07 8.38996C145.11 8.53996 145.03 9.97996 144.42 10.46C143.75 9.45996 144.81 7.88996 145.72 7.33996C149.36 5.30996 148.15 15.49 148.98 14.56C150.51 12.44 150.33 9.12996 151.29 6.89996C153.84 10.63 146.2 21.28 142.12 22.59L142.11 22.58Z" fill="black"/>
</svg>
