<svg width="29" height="30" viewBox="0 0 29 30" fill="none" xmlns="http://www.w3.org/2000/svg">
<path d="M14.5 11.5583C12.4213 11.5583 10.7249 13.2546 10.7249 15.3333C10.7249 17.4121 12.4213 19.1084 14.5 19.1084C16.5787 19.1084 18.2751 17.4121 18.2751 15.3333C18.2751 13.2546 16.5787 11.5583 14.5 11.5583ZM25.8225 15.3333C25.8225 13.7701 25.8366 12.2209 25.7488 10.6605C25.661 8.848 25.2476 7.2394 23.9222 5.91401C22.5939 4.58579 20.9882 4.17515 19.1757 4.08735C17.6124 3.99956 16.0633 4.01372 14.5028 4.01372C12.9395 4.01372 11.3904 3.99956 9.82998 4.08735C8.01748 4.17515 6.40889 4.58862 5.0835 5.91401C3.75527 7.24224 3.34463 8.848 3.25684 10.6605C3.16904 12.2238 3.1832 13.7729 3.1832 15.3333C3.1832 16.8938 3.16904 18.4457 3.25684 20.0062C3.34463 21.8187 3.75811 23.4273 5.0835 24.7527C6.41172 26.0809 8.01748 26.4915 9.82998 26.5793C11.3933 26.6671 12.9424 26.653 14.5028 26.653C16.0661 26.653 17.6152 26.6671 19.1757 26.5793C20.9882 26.4915 22.5968 26.0781 23.9222 24.7527C25.2504 23.4245 25.661 21.8187 25.7488 20.0062C25.8395 18.4457 25.8225 16.8966 25.8225 15.3333ZM14.5 21.1418C11.2856 21.1418 8.6915 18.5477 8.6915 15.3333C8.6915 12.119 11.2856 9.52485 14.5 9.52485C17.7144 9.52485 20.3085 12.119 20.3085 15.3333C20.3085 18.5477 17.7144 21.1418 14.5 21.1418ZM20.5464 10.6435C19.7959 10.6435 19.1898 10.0374 19.1898 9.28696C19.1898 8.53647 19.7959 7.93042 20.5464 7.93042C21.2969 7.93042 21.9029 8.53647 21.9029 9.28696C21.9032 9.46517 21.8682 9.64167 21.8001 9.80635C21.732 9.97104 21.6321 10.1207 21.5061 10.2467C21.3801 10.3727 21.2305 10.4726 21.0658 10.5407C20.9011 10.6088 20.7246 10.6437 20.5464 10.6435Z" fill="black"/>
</svg>
