<svg width="70" height="21" viewBox="0 0 70 21" fill="none" xmlns="http://www.w3.org/2000/svg">
<g clip-path="url(#clip0_393_1419)">
<path d="M0 21V4.97015H4.16107V6.68657C4.73527 5.96269 5.26473 5.47761 5.74198 5.22388C6.39075 4.8806 7.10664 4.70895 7.89709 4.70895C9.44817 4.70895 10.6488 5.30597 11.4989 6.49254C12.349 7.6791 12.774 9.14925 12.774 10.8955C12.774 12.8284 12.3117 14.2985 11.387 15.3134C10.4623 16.3284 9.29157 16.8358 7.88218 16.8358C7.19612 16.8358 6.56972 16.7164 6.01044 16.4851C5.4437 16.2537 4.94407 15.903 4.49664 15.4478V20.9925H0V21ZM4.45936 10.806C4.45936 11.7239 4.65324 12.403 5.04101 12.8507C5.42878 13.2985 5.9135 13.5149 6.50261 13.5149C7.01715 13.5149 7.44966 13.2985 7.80015 12.8731C8.15063 12.4478 8.32215 11.7239 8.32215 10.7015C8.32215 9.76119 8.14318 9.06716 7.77778 8.62687C7.41238 8.18657 6.97241 7.96269 6.44295 7.96269C5.87621 7.96269 5.39896 8.18657 5.0261 8.62687C4.65324 9.06716 4.45936 9.79104 4.45936 10.791V10.806Z" fill="black"/>
<path d="M27.1216 16.5821H22.968V14.7015C22.349 15.4776 21.7226 16.0224 21.0962 16.3508C20.4624 16.6791 19.6943 16.8433 18.7771 16.8433C17.5541 16.8433 16.5921 16.4776 15.8986 15.7463C15.2051 15.0149 14.8546 13.8881 14.8546 12.3657V4.97015H19.3214V11.3582C19.3214 12.0896 19.4557 12.6045 19.7241 12.9105C19.9926 13.2164 20.3729 13.3731 20.8576 13.3731C21.3871 13.3731 21.827 13.1716 22.1626 12.7612C22.4982 12.3508 22.6697 11.6194 22.6697 10.5672V4.97015H27.1141V16.5821H27.1216Z" fill="black"/>
<path d="M35.1827 0.552246V4.97016H37.6286V8.23135H35.1827V12.3433C35.1827 12.8358 35.2274 13.1642 35.3244 13.3284C35.4735 13.5746 35.7271 13.7015 36.0925 13.7015C36.4206 13.7015 36.8754 13.6045 37.472 13.4179L37.8001 16.4925C36.7039 16.7314 35.6749 16.8508 34.7203 16.8508C33.6167 16.8508 32.7964 16.709 32.2744 16.4254C31.7524 16.1418 31.3646 15.709 31.1111 15.1343C30.8576 14.5522 30.7308 13.6194 30.7308 12.3209V8.23881H29.0902V4.97016H30.7308V2.84329L35.1901 0.559709L35.1827 0.552246Z" fill="black"/>
<path d="M45.6972 15.0448C44.601 15.8955 43.915 16.3806 43.6316 16.5149C43.214 16.709 42.7666 16.806 42.2893 16.806C41.5511 16.806 40.9471 16.5522 40.4623 16.0448C39.9776 15.5373 39.7465 14.8731 39.7465 14.0522C39.7465 13.5299 39.8658 13.0821 40.0969 12.7015C40.4176 12.1716 40.9694 11.6716 41.7599 11.209C42.5503 10.7388 43.8553 10.1716 45.6898 9.50747V9.08956C45.6898 8.02239 45.5183 7.29105 45.1827 6.89552C44.8471 6.5 44.355 6.29851 43.7062 6.29851C43.214 6.29851 42.8263 6.43284 42.5429 6.69403C42.2446 6.95523 42.1029 7.2612 42.1029 7.60448L42.1253 8.28359C42.1253 8.64179 42.0358 8.91791 41.8494 9.11194C41.6629 9.30597 41.4243 9.40299 41.1335 9.40299C40.8427 9.40299 40.6115 9.29851 40.4251 9.09702C40.2386 8.89552 40.1491 8.61941 40.1491 8.26866C40.1491 7.59702 40.4922 6.98508 41.1782 6.42538C41.8643 5.86567 42.8188 5.58209 44.0567 5.58209C45.0037 5.58209 45.7793 5.73881 46.3908 6.0597C46.8456 6.29851 47.1887 6.67911 47.4049 7.19403C47.5466 7.52985 47.6137 8.20896 47.6137 9.24627V12.8731C47.6137 13.8881 47.6361 14.5149 47.6734 14.7463C47.7107 14.9776 47.7778 15.1269 47.8673 15.209C47.9568 15.2836 48.0612 15.3284 48.173 15.3284C48.2998 15.3284 48.4042 15.2985 48.5011 15.2463C48.6652 15.1418 48.9784 14.8582 49.4482 14.3955V15.0522C48.5757 16.2164 47.748 16.7985 46.9575 16.7985C46.5772 16.7985 46.2714 16.6642 46.0477 16.403C45.824 16.1418 45.7047 15.6866 45.6972 15.0522V15.0448ZM45.6972 14.2836V10.2164C44.5265 10.6866 43.7659 11.0149 43.4228 11.209C42.8113 11.5522 42.3714 11.9104 42.1029 12.2836C41.8419 12.6567 41.7077 13.0672 41.7077 13.5075C41.7077 14.0672 41.8717 14.5299 42.2073 14.903C42.5429 15.2761 42.9232 15.4552 43.3632 15.4552C43.9523 15.4552 44.7278 15.0672 45.6972 14.291V14.2836Z" fill="black"/>
<path d="M53.9225 5.58209V14.1642C53.9225 14.8358 53.9673 15.2761 54.0717 15.5C54.1686 15.7239 54.3103 15.8881 54.5042 15.9925C54.6906 16.1045 55.0411 16.1567 55.5482 16.1567V16.5746H50.3655V16.1567C50.8875 16.1567 51.2379 16.1045 51.4169 16.0075C51.5959 15.903 51.7376 15.7388 51.842 15.5075C51.9464 15.2761 51.9986 14.8284 51.9986 14.1642V10.0448C51.9986 8.88806 51.9613 8.13433 51.8942 7.79104C51.842 7.54478 51.7525 7.36567 51.6406 7.26866C51.5288 7.17164 51.3647 7.1194 51.1634 7.1194C50.9471 7.1194 50.6787 7.17911 50.3729 7.29105L50.2089 6.87313L53.4229 5.56716H53.9374L53.9225 5.58209ZM52.9531 0C53.2812 0 53.5571 0.11194 53.7883 0.343284C54.0194 0.574627 54.1313 0.850746 54.1313 1.1791C54.1313 1.50746 54.0194 1.78358 53.7883 2.02239C53.5571 2.25373 53.2812 2.37313 52.9531 2.37313C52.625 2.37313 52.3491 2.25373 52.1104 2.02239C51.8718 1.79104 51.7599 1.50746 51.7599 1.1791C51.7599 0.850746 51.8718 0.574627 52.103 0.343284C52.3341 0.11194 52.6101 0 52.9456 0L52.9531 0Z" fill="black"/>
<path d="M59.9776 7.85073C61.2304 6.34327 62.4235 5.58954 63.557 5.58954C64.1387 5.58954 64.6383 5.73879 65.0634 6.02984C65.4884 6.32088 65.8165 6.79849 66.0626 7.47014C66.2341 7.94029 66.3161 8.64924 66.3161 9.61939V14.1791C66.3161 14.8582 66.3684 15.3134 66.4802 15.5522C66.5622 15.7463 66.7039 15.8955 66.8903 16.0075C67.0768 16.1194 67.4347 16.1716 67.9418 16.1716V16.5895H62.6622V16.1716H62.8859C63.3855 16.1716 63.7285 16.097 63.9299 15.9477C64.1312 15.7985 64.2654 15.5746 64.34 15.2761C64.3698 15.1567 64.3848 14.791 64.3848 14.1791V9.80596C64.3848 8.83581 64.258 8.12685 64.0044 7.68655C63.7509 7.24626 63.3258 7.02984 62.7293 7.02984C61.8046 7.02984 60.8874 7.5373 59.9701 8.54476V14.1791C59.9701 14.903 60.0149 15.3507 60.0969 15.5224C60.2088 15.7463 60.3579 15.9104 60.5443 16.0149C60.7308 16.1194 61.1185 16.1716 61.7002 16.1716V16.5895H56.4206V16.1716H56.6517C57.1961 16.1716 57.5615 16.0373 57.7554 15.7612C57.9418 15.4851 58.0387 14.9552 58.0387 14.1791V10.2164C58.0387 8.93282 58.0089 8.14924 57.9493 7.87312C57.8896 7.597 57.8001 7.40297 57.6808 7.29849C57.5615 7.19402 57.3974 7.14924 57.1961 7.14924C56.9798 7.14924 56.7188 7.20894 56.4131 7.32088L56.2416 6.90297L59.4556 5.597H59.9552V7.8582L59.9776 7.85073Z" fill="black"/>
<path d="M38.6801 19.0298H70" stroke="black" stroke-width="0.5" stroke-miterlimit="10"/>
</g>
<defs>
<clipPath id="clip0_393_1419">
<rect width="70" height="21" fill="white"/>
</clipPath>
</defs>
</svg>
