<svg width="91" height="27" viewBox="0 0 91 27" fill="none" xmlns="http://www.w3.org/2000/svg">
<g clip-path="url(#clip0_76_2529)">
<path d="M50.1139 10.9884L44.3969 10.397C44.5488 9.57243 44.8659 8.78572 45.33 8.08261C45.7954 7.4706 46.3956 6.96988 47.0858 6.61787C47.7964 6.26407 48.5609 6.02636 49.3493 5.91409C50.3791 5.74524 51.4217 5.66346 52.4657 5.66964C53.9126 5.64594 55.3589 5.74687 56.788 5.97126C57.7922 6.13036 58.7327 6.55723 59.507 7.20534C60.062 7.7079 60.4765 8.34184 60.711 9.04661C60.9918 9.77324 61.1412 10.5425 61.1525 11.3196V18.0913C61.1388 18.6603 61.1852 19.2291 61.2909 19.7887C61.4325 20.3343 61.6344 20.8632 61.8929 21.3658H56.2743C56.1006 21.0783 55.9536 20.7761 55.8348 20.4629C55.7425 20.1438 55.6754 19.8182 55.6342 19.489C54.9608 20.1512 54.169 20.6858 53.2984 21.0661C52.1218 21.5104 50.8685 21.726 49.6082 21.7009C47.746 21.7009 46.3326 21.2777 45.3681 20.4313C44.907 20.0461 44.5382 19.5655 44.2881 19.024C44.038 18.4825 43.9128 17.8934 43.9213 17.2988C43.9213 16.1344 44.2691 15.1763 44.9648 14.4245C45.6604 13.6728 46.944 13.1142 48.8155 12.7489C51.059 12.3073 52.5138 11.9971 53.18 11.8184C53.9001 11.6232 54.6089 11.3896 55.3031 11.1185C55.3031 10.397 55.1506 9.89036 54.8476 9.60254C54.5445 9.31472 54.0088 9.16884 53.2422 9.16884C52.263 9.16884 51.5272 9.3226 51.0349 9.63014C50.6577 9.87262 50.3486 10.3241 50.1139 10.9884ZM55.3031 14.0776C54.4803 14.3667 53.6228 14.6217 52.7305 14.8425C51.5145 15.1618 50.7459 15.4733 50.4229 15.7828C50.2667 15.9237 50.142 16.0949 50.0567 16.2857C49.9714 16.4764 49.9274 16.6824 49.9274 16.8907C49.9274 17.099 49.9714 17.3051 50.0567 17.4958C50.142 17.6865 50.2667 17.8577 50.4229 17.9986C50.752 18.2924 51.2255 18.4383 51.8717 18.4383C52.5227 18.4425 53.1635 18.2787 53.7298 17.9632C54.244 17.7017 54.6684 17.2971 54.9499 16.8C55.211 16.2449 55.3347 15.6369 55.3111 15.0258L55.3031 14.0776Z" fill="#6FAA98"/>
<path d="M0 27.0079V5.83335H5.60059V8.10043C6.37382 7.14628 7.08418 6.50099 7.73166 6.16454C8.62754 5.70601 9.62522 5.473 10.6353 5.48639C12.7222 5.48639 14.3369 6.27099 15.4794 7.84021C16.6218 9.40943 17.1924 11.3493 17.1911 13.6597C17.1911 16.2107 16.569 18.1571 15.3249 19.4989C14.7353 20.152 14.0077 20.6707 13.1928 21.0187C12.3779 21.3667 11.4955 21.5357 10.6072 21.5137C9.74435 21.5245 8.88782 21.3678 8.08684 21.0524C7.31745 20.7369 6.62369 20.2668 6.05008 19.6724V27.0079H0ZM5.9959 13.5434C5.9959 14.7551 6.25543 15.6554 6.77448 16.2442C7.01462 16.5269 7.31643 16.7529 7.65754 16.9054C7.99865 17.0579 8.37032 17.1331 8.74502 17.1254C9.08327 17.1279 9.41745 17.0528 9.7209 16.9059C10.0244 16.7591 10.2887 16.5447 10.4928 16.2797C10.9651 15.7159 11.2005 14.7578 11.1992 13.4054C11.1992 12.1634 10.9544 11.2513 10.4647 10.6691C10.2546 10.3974 9.98335 10.1771 9.6721 10.0256C9.36086 9.87407 9.01813 9.79543 8.67078 9.79581C8.30515 9.79056 7.9431 9.86718 7.6121 10.0199C7.28111 10.1725 6.98985 10.3973 6.76044 10.677C6.25074 11.2697 5.9959 12.2252 5.9959 13.5434Z" fill="#1D1D1B"/>
<path d="M34.9882 21.1666H29.4037V18.6847C28.5716 19.7032 27.7315 20.4261 26.8833 20.8532C26.0352 21.2803 24.9937 21.4972 23.759 21.5037C22.1135 21.5037 20.8225 21.0201 19.8861 20.0528C18.9497 19.0855 18.4814 17.5958 18.4814 15.5837V5.83325H24.5014V14.2648C24.5014 15.2282 24.6827 15.9116 25.0452 16.3151C25.2382 16.5209 25.4753 16.6821 25.7394 16.7871C26.0034 16.8921 26.2879 16.9383 26.5723 16.9223C26.9089 16.9297 27.2426 16.8606 27.5476 16.7204C27.8525 16.5802 28.1203 16.3726 28.3301 16.114C28.785 15.5738 29.0124 14.6065 29.0124 13.2121V5.83325H34.9942L34.9882 21.1666Z" fill="#1D1D1B"/>
<path d="M44.3293 0V5.83331H47.6223V10.1368H44.3293V15.5739C44.3293 16.231 44.3962 16.6634 44.53 16.8711C44.72 17.1891 45.0604 17.3481 45.5514 17.3481C46.1839 17.3111 46.8076 17.185 47.4035 16.9736L47.845 21.0287C46.4846 21.3339 45.0946 21.4938 43.6993 21.5058C42.2103 21.5058 41.1133 21.3185 40.4083 20.9439C39.7014 20.5688 39.1484 19.9649 38.8432 19.2347C38.4993 18.4751 38.3274 17.2397 38.3274 15.5285V10.1368H36.1201V5.83331H38.3274V3.01818L44.3293 0Z" fill="#1D1D1B"/>
<path d="M57.7217 0H63.7035V3.99993H57.7217V0ZM57.7217 5.83331H63.7035V21.1667H57.7217V5.83331Z" fill="#1D1D1B"/>
<path d="M66.0195 5.83331H71.59V8.33105C72.4235 7.31251 73.2662 6.5831 74.1184 6.14282C74.9706 5.70255 76.0094 5.48372 77.2348 5.48635C78.8909 5.48635 80.1865 5.97 81.1217 6.93729C82.0568 7.90458 82.525 9.39888 82.5263 11.4202V21.1667H76.5063V12.7351C76.5063 11.7731 76.3251 11.0923 75.9625 10.6928C75.7671 10.4904 75.529 10.3326 75.2648 10.2304C75.0006 10.1282 74.7168 10.0842 74.4335 10.1013C74.0957 10.0921 73.7605 10.1603 73.4543 10.3007C73.1481 10.441 72.8794 10.6495 72.6696 10.9096C72.2201 11.4485 71.9947 12.4157 71.9934 13.8115V21.1746H66.0195V5.83331Z" fill="#1D1D1B"/>
<path d="M84.6064 15.2762H90.9997V21.1667H84.6064V15.2762Z" fill="#1D1D1B"/>
</g>
<defs>
<clipPath id="clip0_76_2529">
<rect width="91" height="27" fill="white"/>
</clipPath>
</defs>
</svg>
