<svg width="24" height="25" viewBox="0 0 24 25" fill="none" xmlns="http://www.w3.org/2000/svg">
<path d="M23.643 5.27033C22.808 5.64033 21.911 5.89033 20.968 6.00333C21.941 5.42112 22.6689 4.5048 23.016 3.42533C22.1018 3.96832 21.1013 4.35052 20.058 4.55533C19.3564 3.80619 18.4271 3.30966 17.4143 3.1428C16.4016 2.97595 15.3621 3.14812 14.4572 3.63258C13.5524 4.11704 12.8328 4.88669 12.4102 5.82203C11.9875 6.75737 11.8855 7.80608 12.12 8.80533C10.2677 8.71233 8.45562 8.23088 6.80142 7.39223C5.14722 6.55359 3.68784 5.37649 2.518 3.93733C2.118 4.62733 1.888 5.42733 1.888 6.27933C1.88755 7.04632 2.07643 7.80157 2.43788 8.47806C2.79932 9.15455 3.32216 9.73137 3.96 10.1573C3.22027 10.1338 2.49687 9.93391 1.85 9.57433V9.63433C1.84992 10.7101 2.22203 11.7527 2.90318 12.5853C3.58433 13.4179 4.53257 13.9893 5.587 14.2023C4.90078 14.388 4.18133 14.4154 3.483 14.2823C3.78049 15.2079 4.35999 16.0174 5.14036 16.5973C5.92074 17.1772 6.86291 17.4985 7.835 17.5163C6.18483 18.8117 4.14688 19.5144 2.049 19.5113C1.67738 19.5114 1.30607 19.4897 0.936996 19.4463C3.06647 20.8155 5.54534 21.5422 8.077 21.5393C16.647 21.5393 21.332 14.4413 21.332 8.28533C21.332 8.08533 21.327 7.88333 21.318 7.68333C22.2293 7.0243 23.0159 6.20822 23.641 5.27333L23.643 5.27033Z" fill="black"/>
</svg>
